<svg id="visual" viewBox="0 0 900 600" width="900" height="600" xmlns="http://www.w3.org/2000/svg" xmlns:xlink="http://www.w3.org/1999/xlink" version="1.1"><g transform="translate(456.6743590959292 295.7220338523995)"><path d="M126 -197.1C160.1 -174.2 182.4 -133.8 203.5 -91.7C224.5 -49.6 244.4 -5.8 242.5 37.7C240.7 81.2 217.1 124.4 184 155.5C151 186.6 108.4 205.6 63.2 221.9C17.9 238.3 -30.1 252 -76.3 245.2C-122.6 238.3 -167.1 210.8 -198.6 172.9C-230.2 135 -248.7 86.7 -254.2 37.6C-259.7 -11.6 -252.2 -61.7 -234.7 -110.2C-217.2 -158.6 -189.7 -205.5 -148.9 -225.4C-108.1 -245.3 -54.1 -238.1 -4.1 -231.8C46 -225.5 91.9 -220 126 -197.1" fill="#ffe1ed"></path></g></svg>